,
Brought to you by  http://www.scenetime.com/signup.php
 
 Hottest scene tracker on the net !!!   
 
No fake torrents from scenebalance 
shame on those who comment fake before downloading my torrents

    seed back for speed


 



...................................NFO:.................................................
                   _..._                          _..._    
                .-'_..._''.                    .-'_..._''.  
        .--.  .' .'      '.\                 .' .'      '.\
        |__| / .'                           / .'            
    .|  .--.. '               .|           . '              
  .' |_ |  || |             .' |_     __   | |              
.'     ||  || |           .'     | .:--.'. | |              
'--.  .-'|  |. '          '--.  .-'/ |   \ |. '              
  |  |  |  | \ '.          .|  |  `" __ | | \ '.          .
  |  |  |__|  '. `._____.-'/|  |   .'.''| |  '. `._____.-'/
  |  '.'        `-.______ / |  '.'/ /   | |_   `-.______ /  
  |   /                  `  |   / \ \._,\ '/            `  
  `'-'                      `'-'   `--'  `"                

_____ _____  ____   ____  ____  __  _  _____  ____
| ()_)| () )| ===| (_ (_`| ===||  \| ||_   _|(_ (_`
|_|   |_|\_\|____|.__)__)|____||_|\__|  |_| .__)__)



In Old California 1942 DVDRip TiCTaC


 
http://www.imdb.com/title/tt0034889/


Boston pharmacist Tom Craig comes to Sacramento, where he runs afoul of local political boss Britt Dawson, who exacts protection payment from the citizenry. Dawson frames Craig with poisoned medicine, but Craig redeems himself during a Gold Rush epidemic
    


6.2/10  

Edit
Cast
Complete credited cast:
John Wayne 	John Wayne 	... 	
Tom Craig
Binnie Barnes 	Binnie Barnes 	... 	
Lacey Miller
Albert Dekker 	Albert Dekker 	... 	
Britt Dawson
Helen Parrish 	Helen Parrish 	... 	
Ellen Sanford
Patsy Kelly 	Patsy Kelly 	... 	
Helga
Edgar Kennedy 	Edgar Kennedy 	... 	
Kegs McKeever
Dick Purcell 	Dick Purcell 	... 	
Joe Dawson
Harry Shannon 	Harry Shannon 	... 	
Mr. Carlin
Charles Halton 	Charles Halton 	... 	
Mr. Hayes
Emmett Lynn 	Emmett Lynn 	... 	
Whitey
Robert McKenzie 	Robert McKenzie 	... 	
Mr. Bates (as Bob McKenzie)
Milton Kibbee 	Milton Kibbee 	... 	
Ezra Tompkins (as Milt Kibbee)
Paul Sutton 	Paul Sutton 	... 	
Chick - Dawson's henchman
Anne O'Neal 	Anne O'Neal 	... 	
Mrs. Tompkins
Full cast and crew 
Edit
Storyline


Genres:
Western

Country:
USA
Language:
English

31 May 1942 (USA)

Runtime:

Color:
Black and White


General
Complete name                    : G:\In Old California 1942 DVDRip TiCTaC\In Old California 1942 DVDRip TiCTaC.avi
Format                           : AVI
Format/Info                      : Audio Video Interleave
File size                        : 1.01 GiB
Duration                         : 1h 24mn
Overall bit rate                 : 1 704 Kbps
Writing application              : Lavf52.13.0
Writing library                  : VirtualDub build 32842/release

Video
ID                               : 0
Format                           : MPEG-4 Visual
Format profile                   : Simple@L1
Format settings, BVOP            : No
Format settings, QPel            : No
Format settings, GMC             : No warppoints
Format settings, Matrix          : Default (H.263)
Codec ID                         : XVID
Codec ID/Hint                    : XviD
Duration                         : 1h 24mn
Bit rate                         : 1 500 Kbps
Width                            : 720 pixels
Height                           : 432 pixels
Display aspect ratio             : 16:9
Frame rate                       : 25.000 fps
Resolution                       : 8 bits
Colorimetry                      : 4:2:0
Scan type                        : Progressive
Bits/(Pixel*Frame)               : 0.193
Stream size                      : 906 MiB (88%)
Writing library                  : Lavc51.54.0

Audio
ID                               : 1
Format                           : MPEG Audio
Format version                   : Version 1
Format profile                   : Layer 3
Mode                             : Joint stereo
Format_Settings_ModeExtension    : MS Stereo
Codec ID                         : 55
Codec ID/Hint                    : MP3
Duration                         : 1h 24mn
Bit rate mode                    : Constant
Bit rate                         : 192 Kbps
Channel(s)                       : 2 channels
Sampling rate                    : 44.1 KHz
Stream size                      : 116 MiB (11%)
Alignment                        : Aligned on interleaves
Interleave, duration             : 26 ms (0.65 video frame)
Interleave, preload duration     : 522 ms
Writing library                  : LAME3.98 (beta)